<mxfile host="app.diagrams.net" modified="2023-06-05T10:24:39.201Z" agent="Mozilla/5.0 (X11; Linux x86_64) AppleWebKit/537.36 (KHTML, like Gecko) Chrome/113.0.0.0 Safari/537.36 Edg/113.0.1774.57" etag="Cbd7UNX42wfyCHpE9-HJ" version="21.3.7" type="github">
  <diagram name="第 1 页" id="WUPZJ9PycZ2-a5WyB6h6">
    <mxGraphModel dx="1209" dy="616" grid="1" gridSize="10" guides="1" tooltips="1" connect="1" arrows="1" fold="1" page="1" pageScale="1" pageWidth="827" pageHeight="1169" math="0" shadow="0">
      <root>
        <mxCell id="0" />
        <mxCell id="1" parent="0" />
        <mxCell id="BbeRD6Kw_-pH-3lA_N95-1" value="kernel" style="shape=trapezoid;perimeter=trapezoidPerimeter;whiteSpace=wrap;html=1;fixedSize=1;fillColor=#e3c800;fontColor=#000000;strokeColor=#B09500;" vertex="1" parent="1">
          <mxGeometry x="140" y="340" width="250" height="40" as="geometry" />
        </mxCell>
        <mxCell id="BbeRD6Kw_-pH-3lA_N95-2" value="system" style="shape=trapezoid;perimeter=trapezoidPerimeter;whiteSpace=wrap;html=1;fixedSize=1;fillColor=#60a917;fontColor=#ffffff;strokeColor=#2D7600;" vertex="1" parent="1">
          <mxGeometry x="160" y="290" width="210" height="33.6" as="geometry" />
        </mxCell>
        <mxCell id="BbeRD6Kw_-pH-3lA_N95-4" value="pre-install" style="shape=trapezoid;perimeter=trapezoidPerimeter;whiteSpace=wrap;html=1;fixedSize=1;fillColor=#0050ef;fontColor=#ffffff;strokeColor=#001DBC;" vertex="1" parent="1">
          <mxGeometry x="180" y="240" width="170" height="33.6" as="geometry" />
        </mxCell>
        <mxCell id="BbeRD6Kw_-pH-3lA_N95-6" value="default" style="triangle;whiteSpace=wrap;html=1;direction=north;fillColor=#1ba1e2;fontColor=#ffffff;strokeColor=#006EAF;" vertex="1" parent="1">
          <mxGeometry x="201" y="172" width="126" height="50" as="geometry" />
        </mxCell>
        <mxCell id="BbeRD6Kw_-pH-3lA_N95-7" value="kernel" style="shape=trapezoid;perimeter=trapezoidPerimeter;whiteSpace=wrap;html=1;fixedSize=1;fillColor=#e3c800;fontColor=#000000;strokeColor=#B09500;" vertex="1" parent="1">
          <mxGeometry x="480" y="340" width="250" height="40" as="geometry" />
        </mxCell>
        <mxCell id="BbeRD6Kw_-pH-3lA_N95-11" value="person" style="triangle;whiteSpace=wrap;html=1;direction=north;fillColor=#1ba1e2;fontColor=#ffffff;strokeColor=#006EAF;" vertex="1" parent="1">
          <mxGeometry x="500" y="200" width="210" height="123.6" as="geometry" />
        </mxCell>
        <mxCell id="BbeRD6Kw_-pH-3lA_N95-12" value="ding-perlis packages" style="text;html=1;strokeColor=none;fillColor=none;align=center;verticalAlign=middle;whiteSpace=wrap;rounded=0;" vertex="1" parent="1">
          <mxGeometry x="205" y="393" width="136" height="30" as="geometry" />
        </mxCell>
        <mxCell id="BbeRD6Kw_-pH-3lA_N95-13" value="person packages" style="text;html=1;strokeColor=none;fillColor=none;align=center;verticalAlign=middle;whiteSpace=wrap;rounded=0;" vertex="1" parent="1">
          <mxGeometry x="540" y="390" width="136" height="30" as="geometry" />
        </mxCell>
      </root>
    </mxGraphModel>
  </diagram>
</mxfile>
